<svg clip-rule="evenodd" fill-rule="evenodd" stroke-linejoin="round" stroke-miterlimit="2" viewBox="0 0 449 94" xmlns="http://www.w3.org/2000/svg"><g fill="#fff" fill-rule="nonzero" transform="translate(-666.75 -1102.47)"><path d="m745.125 1194.97h-1.125l-51.75-41.62v40.37h-25.5v-91.25h1.25l51.5 41.63v-40.38h25.625z"/><path d="m827.75 1193.72h-62.125v-90h60.25v22h-34.125v12h29.25v20.63h-29.25v13.37h36z"/><path d="m876.25 1193.72h-32.625v-90h30.625c11 0 19.917 2.17 26.75 6.5 6.917 4.25 10.375 10.71 10.375 19.38 0 4.17-1.062 7.69-3.187 10.56-2.125 2.88-4.938 4.98-8.438 6.31 3.917 1.17 7.375 3.55 10.375 7.13 3 3.67 4.5 8 4.5 13 0 9-3.375 15.77-10.125 20.31s-16.167 6.81-28.25 6.81zm1.375-37.37h-9.125v16.62h9.125c3 0 5.417-.66 7.25-2 1.833-1.33 2.75-3.41 2.75-6.25 0-2.83-.917-4.93-2.75-6.31-1.833-1.37-4.25-2.06-7.25-2.06zm-1.875-31.88h-7.25v15.38h7.25c6.25 0 9.375-2.54 9.375-7.63 0-5.16-3.125-7.75-9.375-7.75z"/><path d="m929.875 1159.72v-56h26.125v53.13c0 9.92 4.75 14.87 14.25 14.87s14.25-4.95 14.25-14.87v-53.13h26.25v56c0 10.75-3.58 19.46-10.75 26.13-7.167 6.5-17.083 9.75-29.75 9.75s-22.542-3.25-29.625-9.75c-7.167-6.67-10.75-15.38-10.75-26.13z"/><path d="m1053.25 1193.72h-29.25l31.88-45.25-31.76-44.75h29.26l16.24 24.75 16.38-24.75h29.12l-31.74 44.75 31.87 45.25h-29.13l-16.5-24.87z"/></g></svg>